<svg width="292" height="28" viewBox="0 0 292 28" fill="none" xmlns="http://www.w3.org/2000/svg">
<rect x="1" y="1" width="144.578" height="26" fill="black" stroke="black" stroke-width="1.769"/>
<rect x="145.559" y="1" width="145.441" height="26" fill="white" stroke="black" stroke-width="1.769"/>
<path d="M30.792 21V6.44163H37.0729C38.6951 6.44163 39.9499 6.76746 40.8373 7.41912C41.7385 8.07078 42.1891 8.99281 42.1891 10.1852C42.1891 10.9755 42.002 11.641 41.6276 12.1818C41.2671 12.7225 40.768 13.1315 40.1302 13.4089C39.5062 13.6862 38.8199 13.8248 38.0712 13.8248L38.4248 13.3257C39.3537 13.3257 40.151 13.4712 40.8165 13.7624C41.4959 14.0397 42.0228 14.4626 42.3971 15.0311C42.7715 15.5857 42.9587 16.2789 42.9587 17.1108C42.9587 18.3448 42.5011 19.3015 41.586 19.9809C40.6848 20.6603 39.3191 21 37.4889 21H30.792ZM32.331 19.7313H37.4681C38.7437 19.7313 39.7211 19.5164 40.4005 19.0866C41.0799 18.6429 41.4196 17.9427 41.4196 16.986C41.4196 16.0432 41.0799 15.3569 40.4005 14.9271C39.7211 14.4834 38.7437 14.2616 37.4681 14.2616H32.1647V12.9929H36.9689C38.1336 12.9929 39.0348 12.7711 39.6726 12.3274C40.3243 11.8837 40.6501 11.2251 40.6501 10.3516C40.6501 9.46423 40.3243 8.80563 39.6726 8.37581C39.0348 7.93213 38.1336 7.71029 36.9689 7.71029H32.331V19.7313ZM46.4715 21V6.44163H51.9205C53.1545 6.44163 54.2152 6.64268 55.1025 7.04476C55.9899 7.43299 56.6693 8.00146 57.1407 8.75017C57.626 9.48502 57.8686 10.3793 57.8686 11.4331C57.8686 12.4591 57.626 13.3465 57.1407 14.0952C56.6693 14.83 55.9899 15.3985 55.1025 15.8006C54.2152 16.1888 53.1545 16.3829 51.9205 16.3829H47.3242L48.0105 15.6758V21H46.4715ZM56.4128 21L52.6692 15.7174H54.333L58.0974 21H56.4128ZM48.0105 15.8006L47.3242 15.0727H51.8789C53.3347 15.0727 54.437 14.7538 55.1857 14.116C55.9483 13.4782 56.3296 12.5839 56.3296 11.4331C56.3296 10.2684 55.9483 9.36717 55.1857 8.72937C54.437 8.09158 53.3347 7.77268 51.8789 7.77268H47.3242L48.0105 7.04476V15.8006ZM59.1717 21L65.827 6.44163H67.3452L74.0005 21H72.3783L66.2637 7.33593H66.8877L60.7732 21H59.1717ZM61.7922 17.1108L62.2498 15.863H70.7144L71.172 17.1108H61.7922ZM74.9737 21V19.9393L85.0814 7.19035L85.2478 7.77268H75.1193V6.44163H86.662V7.50231L76.5752 20.2513L76.388 19.6689H86.9116V21H74.9737ZM89.9557 21V6.44163H91.4947V21H89.9557ZM96.2316 21V6.44163H97.7706V19.6689H105.923V21H96.2316ZM108.479 21V6.44163H110.018V21H108.479ZM112.425 21L119.08 6.44163H120.599L127.254 21H125.632L119.517 7.33593H120.141L114.027 21H112.425ZM115.046 17.1108L115.503 15.863H123.968L124.425 17.1108H115.046ZM129.662 21V6.44163H130.931L140.976 19.0866H140.311V6.44163H141.829V21H140.56L130.536 8.35502H131.201V21H129.662Z" fill="white"/>
<path d="M158.409 21.208C157.272 21.208 156.225 21.0277 155.268 20.6672C154.325 20.2929 153.5 19.7729 152.793 19.1074C152.086 18.428 151.538 17.6308 151.15 16.7157C150.762 15.8006 150.568 14.8023 150.568 13.7208C150.568 12.6393 150.762 11.641 151.15 10.726C151.538 9.81085 152.086 9.02054 152.793 8.35502C153.514 7.67563 154.353 7.15569 155.31 6.79519C156.266 6.42083 157.313 6.23365 158.45 6.23365C159.684 6.23365 160.793 6.4347 161.778 6.83679C162.776 7.23888 163.615 7.82814 164.294 8.60459L162.589 10.2684C162.02 9.69993 161.403 9.28398 160.738 9.02054C160.086 8.74324 159.365 8.60459 158.575 8.60459C157.812 8.60459 157.105 8.72938 156.454 8.97895C155.802 9.22852 155.24 9.58208 154.769 10.0396C154.298 10.4972 153.93 11.0379 153.667 11.6618C153.417 12.2858 153.292 12.9721 153.292 13.7208C153.292 14.4557 153.417 15.1351 153.667 15.759C153.93 16.3829 154.298 16.9306 154.769 17.402C155.24 17.8596 155.795 18.2131 156.433 18.4627C157.071 18.7123 157.778 18.837 158.554 18.837C159.275 18.837 159.968 18.7261 160.634 18.5043C161.313 18.2686 161.958 17.8803 162.568 17.3396L164.107 19.357C163.345 19.967 162.457 20.4315 161.445 20.7504C160.447 21.0555 159.435 21.208 158.409 21.208ZM161.549 19.0034V13.5544H164.107V19.357L161.549 19.0034Z" fill="#130FD9"/>
<path d="M170.169 12.4938H177.406V14.7191H170.169V12.4938ZM170.377 18.7331H178.592V21H167.673V6.44163H178.301V8.70858H170.377V18.7331ZM205.982 21.208C204.846 21.208 203.757 21.0485 202.717 20.7296C201.677 20.3969 200.852 19.974 200.242 19.461L201.178 17.3604C201.761 17.818 202.482 18.1992 203.341 18.5043C204.201 18.8093 205.081 18.9618 205.982 18.9618C206.745 18.9618 207.362 18.8786 207.833 18.7123C208.305 18.5459 208.652 18.324 208.873 18.0467C209.095 17.7556 209.206 17.4297 209.206 17.0692C209.206 16.6256 209.047 16.272 208.728 16.0086C208.409 15.7313 207.993 15.5163 207.48 15.3638C206.981 15.1975 206.419 15.0449 205.795 14.9063C205.185 14.7676 204.568 14.6082 203.944 14.4279C203.334 14.2338 202.773 13.9912 202.26 13.7C201.761 13.395 201.352 12.9929 201.033 12.4938C200.714 11.9946 200.554 11.3568 200.554 10.5804C200.554 9.79006 200.762 9.06907 201.178 8.41741C201.608 7.75188 202.253 7.22501 203.112 6.83679C203.986 6.4347 205.088 6.23365 206.419 6.23365C207.293 6.23365 208.159 6.34458 209.019 6.56642C209.879 6.78826 210.627 7.10716 211.265 7.52311L210.412 9.62367C209.761 9.23545 209.088 8.95122 208.395 8.77097C207.702 8.57686 207.036 8.4798 206.398 8.4798C205.65 8.4798 205.04 8.56993 204.568 8.75017C204.111 8.93042 203.771 9.16613 203.549 9.45729C203.341 9.74846 203.237 10.0812 203.237 10.4556C203.237 10.8993 203.39 11.2598 203.695 11.5371C204.014 11.8005 204.423 12.0085 204.922 12.161C205.435 12.3135 206.003 12.466 206.627 12.6185C207.251 12.7572 207.868 12.9166 208.478 13.0969C209.102 13.2771 209.664 13.5128 210.163 13.804C210.676 14.0952 211.085 14.4903 211.39 14.9895C211.709 15.4886 211.868 16.1195 211.868 16.8821C211.868 17.6585 211.653 18.3795 211.223 19.045C210.808 19.6967 210.163 20.2236 209.289 20.6256C208.416 21.0139 207.314 21.208 205.982 21.208ZM263.901 12.4938H271.138V14.7191H263.901V12.4938ZM264.109 18.7331H272.324V21H261.405V6.44163H272.032V8.70858H264.109V18.7331Z" fill="#20EB0F"/>
<path d="M181.606 21V6.44163H183.831L190.195 17.0692H189.031L195.291 6.44163H197.516L197.537 21H194.979L194.958 10.4556H195.499L190.175 19.3362H188.968L183.561 10.4556H184.185V21H181.606ZM217.502 21V8.72937H212.677V6.44163H225.031V8.72937H220.206V21H217.502ZM244.568 21V6.44163H246.793L255.923 17.6516H254.821V6.44163H257.504V21H255.278L246.148 9.79006H247.251V21H244.568Z" fill="#130FD9"/>
<path d="M233.882 21.208C232.745 21.208 231.698 21.0208 230.741 20.6464C229.785 20.2721 228.953 19.7521 228.246 19.0866C227.539 18.4072 226.991 17.6169 226.603 16.7157C226.214 15.8006 226.02 14.8023 226.02 13.7208C226.02 12.6393 226.214 11.648 226.603 10.7467C226.991 9.83165 227.539 9.04134 228.246 8.37581C228.953 7.69642 229.785 7.16955 230.741 6.79519C231.698 6.42083 232.738 6.23365 233.861 6.23365C234.998 6.23365 236.038 6.42083 236.981 6.79519C237.937 7.16955 238.769 7.69642 239.476 8.37581C240.184 9.04134 240.731 9.83165 241.119 10.7467C241.508 11.648 241.702 12.6393 241.702 13.7208C241.702 14.8023 241.508 15.8006 241.119 16.7157C240.731 17.6308 240.184 18.4211 239.476 19.0866C238.769 19.7521 237.937 20.2721 236.981 20.6464C236.038 21.0208 235.005 21.208 233.882 21.208ZM233.861 18.837C234.596 18.837 235.275 18.7123 235.899 18.4627C236.523 18.2131 237.064 17.8596 237.521 17.402C237.979 16.9306 238.333 16.3898 238.582 15.7798C238.846 15.1559 238.977 14.4695 238.977 13.7208C238.977 12.9721 238.846 12.2927 238.582 11.6826C238.333 11.0587 237.979 10.518 237.521 10.0604C237.064 9.58901 236.523 9.22852 235.899 8.97895C235.275 8.72938 234.596 8.60459 233.861 8.60459C233.126 8.60459 232.447 8.72938 231.823 8.97895C231.213 9.22852 230.672 9.58901 230.201 10.0604C229.743 10.518 229.383 11.0587 229.119 11.6826C228.87 12.2927 228.745 12.9721 228.745 13.7208C228.745 14.4557 228.87 15.1351 229.119 15.759C229.383 16.3829 229.743 16.9306 230.201 17.402C230.658 17.8596 231.199 18.2131 231.823 18.4627C232.447 18.7123 233.126 18.837 233.861 18.837ZM279.851 21.208C278.714 21.208 277.625 21.0485 276.586 20.7296C275.546 20.3969 274.721 19.974 274.111 19.461L275.046 17.3604C275.629 17.818 276.35 18.1992 277.209 18.5043C278.069 18.8093 278.95 18.9618 279.851 18.9618C280.613 18.9618 281.23 18.8786 281.702 18.7123C282.173 18.5459 282.52 18.324 282.742 18.0467C282.963 17.7556 283.074 17.4297 283.074 17.0692C283.074 16.6256 282.915 16.272 282.596 16.0086C282.277 15.7313 281.861 15.5163 281.348 15.3638C280.849 15.1975 280.288 15.0449 279.664 14.9063C279.054 14.7676 278.437 14.6082 277.813 14.4279C277.203 14.2338 276.641 13.9912 276.128 13.7C275.629 13.395 275.22 12.9929 274.901 12.4938C274.582 11.9946 274.423 11.3568 274.423 10.5804C274.423 9.79006 274.631 9.06907 275.046 8.41741C275.476 7.75188 276.121 7.22501 276.981 6.83679C277.854 6.4347 278.956 6.23365 280.288 6.23365C281.161 6.23365 282.028 6.34458 282.887 6.56642C283.747 6.78826 284.496 7.10716 285.133 7.52311L284.281 9.62367C283.629 9.23545 282.957 8.95122 282.263 8.77097C281.57 8.57686 280.904 8.4798 280.267 8.4798C279.518 8.4798 278.908 8.56993 278.437 8.75017C277.979 8.93042 277.639 9.16613 277.417 9.45729C277.209 9.74846 277.105 10.0812 277.105 10.4556C277.105 10.8993 277.258 11.2598 277.563 11.5371C277.882 11.8005 278.291 12.0085 278.79 12.161C279.303 12.3135 279.872 12.466 280.495 12.6185C281.119 12.7572 281.736 12.9166 282.346 13.0969C282.97 13.2771 283.532 13.5128 284.031 13.804C284.544 14.0952 284.953 14.4903 285.258 14.9895C285.577 15.4886 285.736 16.1195 285.736 16.8821C285.736 17.6585 285.522 18.3795 285.092 19.045C284.676 19.6967 284.031 20.2236 283.158 20.6256C282.284 21.0139 281.182 21.208 279.851 21.208Z" fill="#F4F810"/>
<path d="M12.6651 10.1897L15.0156 5.48276H15.2817L17.6322 10.1897H12.6651ZM14.4835 20.8138L6.83326 11.5345H14.4835V20.8138ZM15.8139 20.8138V11.5345H23.4641L15.8139 20.8138ZM19.0957 10.1897L16.7896 5.48276H21.3575L23.6859 10.1897H19.0957ZM6.61151 10.1897L8.93983 5.48276H13.5078L11.2016 10.1897H6.61151Z" fill="white"/>
</svg>
